<svg width="256" height="256" viewBox="0 0 256 256" xmlns="http://www.w3.org/2000/svg">

  <defs>
    <!-- Gradient cam -->
    <linearGradient id="gradPin" x1="0" y1="0" x2="0" y2="1">
      <stop offset="0%" stop-color="#FFB347"/>
      <stop offset="100%" stop-color="#FF8C42"/>
    </linearGradient>

    <!-- Gradient xanh -->
    <linearGradient id="gradBlue" x1="0" y1="0" x2="1" y2="1">
      <stop offset="0%" stop-color="#5BC0EB"/>
      <stop offset="100%" stop-color="#3A86FF"/>
    </linearGradient>
  </defs>

  <!-- Pin -->
  <path d="M128 24
           C88 24 56 56 56 96
           C56 150 128 224 128 224
           C128 224 200 150 200 96
           C200 56 168 24 128 24 Z"
        fill="url(#gradPin)"/>

  <!-- Mặt -->
  <circle cx="128" cy="96" r="26" fill="#FFE0A3"/>

  <!-- Mắt -->
  <circle cx="118" cy="92" r="3.5" fill="#5A3E2B"/>
  <circle cx="138" cy="92" r="3.5" fill="#5A3E2B"/>

  <!-- Miệng -->
  <path d="M118 104 Q128 112 138 104"
        stroke="#5A3E2B"
        stroke-width="2.5"
        stroke-linecap="round"
        fill="none"/>

  <!-- Sóng -->
  <path d="M168 64 Q196 84 196 112"
        stroke="url(#gradBlue)"
        stroke-width="6"
        stroke-linecap="round"
        fill="none"/>

  <path d="M176 52 Q212 78 212 116"
        stroke="url(#gradBlue)"
        stroke-width="6"
        stroke-linecap="round"
        fill="none"
        opacity="0.7"/>

  <!-- Curve AI -->
  <path d="M64 148 Q110 110 152 148"
        stroke="url(#gradBlue)"
        stroke-width="10"
        stroke-linecap="round"
        fill="none"/>

  <!-- Dot -->
  <circle cx="64" cy="148" r="6" fill="#3A86FF"/>

</svg>