<svg viewBox="0 0 360 220" xmlns="http://www.w3.org/2000/svg">

  <defs>
    <linearGradient id="blue" x1="0" y1="0" x2="1" y2="1">
      <stop offset="0%" stop-color="#7cc0d8"/>
      <stop offset="100%" stop-color="#4a90e2"/>
    </linearGradient>

    <linearGradient id="orange" x1="0" y1="0" x2="0" y2="1">
      <stop offset="0%" stop-color="#f7b45a"/>
      <stop offset="100%" stop-color="#f08c3a"/>
    </linearGradient>
  </defs>

  <!-- A -->
  <path d="M40 150 Q90 40 140 150"
    stroke="url(#blue)" stroke-width="18"
    stroke-linecap="round" fill="none"/>

  <!-- arrow -->
  <path d="M90 125 L90 90 M90 90 L70 110 M90 90 L110 110"
    stroke="url(#blue)" stroke-width="12"
    stroke-linecap="round"/>

  <!-- i -->
  <circle cx="165" cy="55" r="12" fill="url(#blue)" />
  <path d="M165 75 L165 150"
    stroke="url(#blue)" stroke-width="18"
    stroke-linecap="round"/>

  <!-- curve -->
  <path d="M165 150 Q210 120 230 150"
    stroke="url(#blue)" stroke-width="18"
    stroke-linecap="round" fill="none"/>

  <!-- pin -->
  <path d="M230 60 C190 60 170 90 170 120 C170 170 230 210 230 210 C230 210 290 170 290 120 C290 90 270 60 230 60 Z"
    fill="url(#orange)"/>

  <!-- face -->
  <circle cx="230" cy="120" r="22" fill="#ffe0a3"/>
  <circle cx="220" cy="115" r="3" fill="#5a3e2b"/>
  <circle cx="240" cy="115" r="3" fill="#5a3e2b"/>

  <path d="M220 130 Q230 138 240 130"
    stroke="#5a3e2b"
    stroke-width="3"
    fill="none"
    stroke-linecap="round"/>

  <!-- waves -->
  <path d="M270 80 Q310 110 310 150"
    stroke="url(#blue)" stroke-width="10"
    stroke-linecap="round" fill="none"/>

  <path d="M285 70 Q340 110 340 160"
    stroke="url(#blue)" stroke-width="10"
    stroke-linecap="round" fill="none"
    opacity="0.6"/>

</svg>
